<svg width="40" height="39" viewBox="0 0 40 39" fill="none" xmlns="http://www.w3.org/2000/svg">
<g clip-path="url(#clip0_88_1224)">
<path d="M17.2015 4.24262C17.0881 4.12892 16.9533 4.0387 16.805 3.97715C16.6566 3.9156 16.4976 3.88391 16.337 3.88391C16.1764 3.88391 16.0174 3.9156 15.869 3.97715C15.7207 4.0387 15.586 4.12892 15.4725 4.24262L0.820643 18.8945C0.707331 19.0081 0.617519 19.1429 0.556343 19.2913C0.495167 19.4396 0.463827 19.5985 0.464113 19.759V36.8529C0.464113 37.1767 0.592753 37.4873 0.821734 37.7162C1.05071 37.9452 1.36128 38.0739 1.68511 38.0739H12.674C12.9979 38.0739 13.3084 37.9452 13.5374 37.7162C13.7664 37.4873 13.895 37.1767 13.895 36.8529V27.0849H18.779V36.8529C18.779 37.1767 18.9076 37.4873 19.1366 37.7162C19.3656 37.9452 19.6762 38.0739 20 38.0739H30.9889C31.3127 38.0739 31.6233 37.9452 31.8523 37.7162C32.0813 37.4873 32.2099 37.1767 32.2099 36.8529V19.759C32.2102 19.5985 32.1789 19.4396 32.1177 19.2913C32.0565 19.1429 31.9667 19.0081 31.8534 18.8945L28.5469 15.5905V7.54907C28.5469 7.22524 28.4183 6.91468 28.1893 6.6857C27.9603 6.45672 27.6498 6.32808 27.3259 6.32808H24.884C24.5601 6.32808 24.2496 6.45672 24.0206 6.6857C23.7916 6.91468 23.663 7.22524 23.663 7.54907V10.7066L17.2015 4.24262ZM2.9061 35.6319V20.2645L16.337 6.83357L29.7679 20.2645V35.6319H21.221V25.8639C21.221 25.5401 21.0923 25.2296 20.8634 25.0006C20.6344 24.7716 20.3238 24.643 20 24.643H12.674C12.3502 24.643 12.0396 24.7716 11.8107 25.0006C11.5817 25.2296 11.453 25.5401 11.453 25.8639V35.6319H2.9061Z" fill="#E6E6E6" fill-opacity="0.6"/>
<path d="M24.5273 4.24262C24.4139 4.12892 24.2792 4.0387 24.1308 3.97715C23.9825 3.9156 23.8235 3.88391 23.6629 3.88391C23.5023 3.88391 23.3432 3.9156 23.1949 3.97715C23.0466 4.0387 22.9118 4.12892 22.7984 4.24262L8.14651 18.8945C8.0332 19.0081 7.94339 19.1429 7.88221 19.2913C7.82103 19.4396 7.78969 19.5985 7.78998 19.759V36.8529C7.78998 37.1767 7.91862 37.4873 8.1476 37.7162C8.37658 37.9452 8.68714 38.0739 9.01097 38.0739H19.9999C20.3237 38.0739 20.6343 37.9452 20.8633 37.7162C21.0923 37.4873 21.2209 37.1767 21.2209 36.8529V27.0849H26.1049V36.8529C26.1049 37.1767 26.2335 37.4873 26.4625 37.7162C26.6915 37.9452 27.002 38.0739 27.3259 38.0739H38.3148C38.6386 38.0739 38.9492 37.9452 39.1782 37.7162C39.4071 37.4873 39.5358 37.1767 39.5358 36.8529V19.759C39.5361 19.5985 39.5047 19.4396 39.4435 19.2913C39.3824 19.1429 39.2926 19.0081 39.1792 18.8945L35.8728 15.5905V7.54907C35.8728 7.22524 35.7442 6.91468 35.5152 6.6857C35.2862 6.45672 34.9756 6.32808 34.6518 6.32808H32.2098C31.886 6.32808 31.5754 6.45672 31.3464 6.6857C31.1175 6.91468 30.9888 7.22524 30.9888 7.54907V10.7066L24.5273 4.24262ZM10.232 35.6319V20.2645L23.6629 6.83357L37.0938 20.2645V35.6319H28.5468V25.8639C28.5468 25.5401 28.4182 25.2296 28.1892 25.0006C27.9602 24.7716 27.6497 24.643 27.3259 24.643H19.9999C19.6761 24.643 19.3655 24.7716 19.1365 25.0006C18.9075 25.2296 18.7789 25.5401 18.7789 25.8639V35.6319H10.232Z" fill="#FF9505"/>
</g>
<defs>
<clipPath id="clip0_88_1224">
<rect width="39.0717" height="39.0717" fill="white" transform="translate(0.464111 -1)"/>
</clipPath>
</defs>
</svg>
